<?xml version="1.0" standalone="no"?>
<!DOCTYPE svg PUBLIC "-//W3C//DTD SVG 20010904//EN"
 "http://www.w3.org/TR/2001/REC-SVG-20010904/DTD/svg10.dtd">
<svg version="1.0" xmlns="http://www.w3.org/2000/svg"
 width="512.000000pt" height="512.000000pt" viewBox="0 0 512.000000 512.000000"
 preserveAspectRatio="xMidYMid meet">

<g transform="translate(0.000000,512.000000) scale(0.100000,-0.100000)"
fill="#000000" stroke="none">
<path d="M2265 4815 c-276 -39 -492 -107 -736 -231 -651 -330 -1103 -953
-1210 -1664 -29 -193 -32 -510 -5 -680 39 -254 104 -462 212 -680 123 -248
264 -440 463 -633 344 -332 767 -539 1251 -614 159 -24 481 -24 640 0 252 39
449 101 675 211 251 123 403 232 606 435 265 264 443 554 559 909 78 240 110
439 110 690 0 765 -374 1464 -1013 1894 -121 81 -379 206 -529 256 -146 49
-213 65 -373 93 -160 27 -506 35 -650 14z m-415 -216 c16 -28 2 -42 -68 -70
-197 -78 -420 -212 -594 -358 -394 -330 -672 -846 -727 -1353 -14 -124 -14
-399 0 -508 36 -297 143 -606 293 -847 48 -78 118 -176 199 -279 23 -29 8 -64
-26 -64 -46 0 -222 250 -332 471 -257 519 -296 1112 -108 1669 111 330 274
591 528 845 147 148 295 263 455 355 115 65 322 160 352 160 10 0 22 -9 28
-21z m549 -298 c8 -5 35 -45 61 -88 75 -127 127 -128 197 -3 24 41 51 81 60
88 28 21 81 15 108 -13 23 -22 25 -32 25 -109 0 -99 11 -130 52 -147 32 -13
42 -9 158 56 54 30 79 31 113 5 46 -36 44 -71 -7 -159 -52 -88 -57 -121 -21
-156 22 -23 32 -25 120 -25 88 0 98 -2 120 -25 29 -28 33 -79 10 -112 -14 -20
-12 -23 35 -53 109 -70 212 -212 244 -336 l12 -48 65 -12 c136 -25 237 -80
323 -176 199 -219 191 -544 -18 -754 -75 -75 -147 -118 -252 -151 -56 -17
-123 -18 -1249 -18 l-1190 0 -80 27 c-149 51 -251 141 -321 283 -33 68 -47
110 -56 173 -34 248 127 513 357 588 27 9 51 18 53 19 2 2 8 34 13 71 36 261
201 491 436 608 71 36 153 66 178 66 21 0 19 11 -10 61 -33 58 -31 84 5 121
39 39 69 35 167 -22 58 -34 77 -41 102 -35 50 11 61 37 61 143 0 85 2 95 25
117 25 26 76 33 104 16z m-528 -2478 c74 -118 119 -222 119 -275 0 -152 -165
-237 -288 -148 -84 60 -94 150 -32 279 59 122 126 222 144 215 9 -3 34 -35 57
-71z m722 45 c45 -60 115 -192 137 -256 20 -60 20 -67 5 -117 -42 -145 -229
-180 -322 -59 -21 29 -28 50 -31 98 -3 55 1 69 38 146 60 124 122 220 141 220
4 0 19 -15 32 -32z m740 15 c35 -39 129 -211 148 -273 19 -57 20 -71 9 -110
-24 -87 -122 -151 -209 -135 -92 17 -143 76 -149 169 -3 55 1 69 37 144 46 95
126 222 139 222 5 0 16 -8 25 -17z m-339 -703 c67 -109 119 -223 124 -271 6
-64 -26 -131 -81 -167 -56 -37 -147 -38 -199 -3 -94 65 -108 153 -45 285 41
87 100 188 123 211 22 21 38 10 78 -55z m-737 -27 c111 -188 131 -260 93 -338
-33 -67 -86 -100 -164 -100 -153 0 -225 136 -153 290 15 33 51 99 80 147 68
115 77 115 144 1z m-1184 -105 c7 -20 -12 -48 -31 -48 -39 0 -57 51 -25 69 19
10 48 -1 56 -21z"/>
</g>
</svg>
